<svg width="1460" height="327" viewBox="0 0 1460 327" fill="none" xmlns="http://www.w3.org/2000/svg">
<path fill-rule="evenodd" clip-rule="evenodd" d="M95.5917 69.2612C108.622 85.587 119.256 96.3505 127.93 102.973C123.043 108.268 119.055 113.241 115.894 117.902C86.064 106.412 62.9665 89.0087 58.4299 74.9767C60.8832 66.6981 63.9615 60.585 67.7776 57.2608C70.1297 56.1834 72.9172 55.25 76.1681 54.4824C81.5709 55.1064 87.9924 59.7403 95.5917 69.2612ZM266.602 82.7032C234.33 139.785 165.72 137.094 115.894 117.902C72.0057 182.623 187.389 187.483 264.215 166.684L255.843 258.944H52.8305C48.9664 191.316 47.528 111.765 58.4299 74.9767C56.0958 67.7574 58.6748 61.4305 67.7776 57.2608C70.2536 55.104 73.0401 54.1212 76.1681 54.4824C98.5214 49.2046 142.781 51.767 217.98 69.2612C236.966 73.6781 253.077 78.1754 266.602 82.7032ZM264.215 166.684C326.039 149.947 362.893 116.593 271.677 84.4459L264.215 166.684ZM271.677 84.4459L273.055 69.2612C271.111 74.0702 268.953 78.5453 266.602 82.7032C268.336 83.2836 270.028 83.8645 271.677 84.4459Z" fill="#366F5F"/>
<path d="M443.851 113.459H428.71L424.051 92.9935H402.919L398.26 113.459H383.174L403.252 32.0391H423.718L443.851 113.459ZM421.222 79.6268L416.896 60.7692C416.822 60.4734 416.267 57.7741 415.232 52.6715C414.234 47.5319 413.661 44.278 413.513 42.9099C412.995 46.3117 412.403 49.7319 411.738 53.1707C411.072 56.6094 409.131 65.4281 405.914 79.6268H421.222ZM520.99 50.5084C526.462 50.5084 530.604 52.4312 533.414 56.2766C536.261 60.1221 537.684 65.7424 537.684 73.1375V113.459H522.82V76.6317C522.82 67.5727 520.583 63.0432 516.109 63.0432C512.892 63.0432 510.563 64.6516 509.121 67.8685C507.716 71.0854 507.013 76.2805 507.013 83.4537V113.459H492.149V76.6317C492.149 67.5727 489.875 63.0432 485.327 63.0432C482.147 63.0432 479.836 64.6516 478.394 67.8685C476.952 71.0854 476.231 76.3914 476.231 83.7865V113.459H461.478V51.6732H473.18L474.955 59.6044H475.898C477.303 56.5724 479.263 54.2984 481.777 52.7824C484.328 51.2664 487.139 50.5084 490.208 50.5084C497.788 50.5084 502.816 54.0766 505.294 61.2129H505.848C508.991 54.0766 514.038 50.5084 520.99 50.5084ZM562.022 56.2212C568.16 52.3387 574.649 50.3975 581.489 50.3975C588.367 50.3975 593.525 52.2648 596.964 55.9993C600.402 59.7339 602.122 65.0583 602.122 71.9728V113.459H591.306L588.367 105.029H588.034C585.889 108.616 583.652 111.112 581.323 112.517C578.994 113.885 576.035 114.569 572.449 114.569C567.901 114.569 564.314 112.886 561.689 109.522C559.101 106.12 557.806 101.294 557.806 95.0456C557.806 88.7597 559.563 84.0269 563.076 80.8469C566.625 77.6301 571.987 75.8552 579.16 75.5225L587.369 75.1897V70.7526C587.369 64.9844 584.873 62.1003 579.881 62.1003C576.22 62.1003 571.968 63.5423 567.124 66.4264L562.022 56.2212ZM573.059 95.3784C573.059 100.481 574.871 103.032 578.494 103.032C581.194 103.032 583.338 101.831 584.928 99.4272C586.555 96.9868 587.369 93.7515 587.369 89.7211V84.5075L582.821 84.7294C579.456 84.9143 576.978 85.8756 575.388 87.6135C573.835 89.3513 573.059 91.9396 573.059 95.3784ZM657.408 101.535V113.459H621.412V104.031L640.381 63.5978H622.632V51.6732H656.631V62.1003L638.217 101.535H657.408ZM676.864 35.5888C676.864 33.1114 677.567 31.1702 678.972 29.7651C680.414 28.323 682.374 27.602 684.851 27.602C687.329 27.602 689.288 28.323 690.73 29.7651C692.172 31.1702 692.893 33.1114 692.893 35.5888C692.893 38.0291 692.154 39.9519 690.675 41.357C689.233 42.762 687.292 43.4646 684.851 43.4646C682.448 43.4646 680.506 42.762 679.027 41.357C677.585 39.9519 676.864 38.0291 676.864 35.5888ZM692.228 113.459H677.474V51.6732H692.228V113.459ZM745.073 50.5084C756.277 50.5084 761.879 58.0515 761.879 73.1375V113.459H747.015V76.6317C747.015 72.0837 746.46 68.682 745.351 66.4264C744.278 64.1709 742.559 63.0432 740.193 63.0432C737.05 63.0432 734.72 64.6146 733.204 67.7576C731.725 70.9005 730.986 76.2435 730.986 83.7865V113.459H716.232V51.6732H727.935L729.71 59.6044H730.653C731.984 56.7203 733.888 54.4833 736.366 52.8934C738.88 51.3034 741.783 50.5084 745.073 50.5084ZM803.909 101.202H812.839C818.126 101.202 822.175 102.644 824.985 105.528C827.795 108.375 829.2 112.609 829.2 118.229C829.2 125.44 826.778 130.986 821.935 134.868C817.128 138.788 810.232 140.748 801.247 140.748C794.406 140.748 789.137 139.25 785.44 136.255C781.742 133.297 779.893 129.063 779.893 123.554C779.893 120.115 780.947 117.083 783.055 114.458C785.162 111.87 788.083 109.984 791.818 108.801C789.858 108.024 788.287 106.859 787.104 105.306C785.957 103.753 785.384 101.905 785.384 99.76C785.384 97.5784 786.087 95.5448 787.492 93.659C788.194 92.7346 789.599 91.385 791.707 89.6102C789.193 88.0572 787.178 85.6908 785.662 82.5109C784.183 79.294 783.443 75.7073 783.443 71.7509C783.443 64.9474 785.218 59.7154 788.767 56.0548C792.317 52.3572 797.401 50.5084 804.02 50.5084C805.203 50.5084 806.645 50.6563 808.346 50.9521C810.047 51.2479 811.286 51.5253 812.062 51.7841H829.644V60.4364L822.267 62.1003C823.709 64.6886 824.431 67.9424 824.431 71.8619C824.431 78.3696 822.656 83.4907 819.106 87.2252C815.556 90.9228 810.602 92.7716 804.242 92.7716C802.467 92.7716 801.099 92.6237 800.137 92.3279C799.509 92.9195 799.028 93.4002 798.695 93.7699C798.363 94.1027 798.03 94.6019 797.697 95.2675C797.364 95.933 797.198 96.6171 797.198 97.3196C797.198 99.9079 799.435 101.202 803.909 101.202ZM804.02 60.4364C799.916 60.4364 797.863 64.1709 797.863 71.64C797.863 79.0721 799.916 82.7882 804.02 82.7882C808.013 82.7882 810.01 79.0721 810.01 71.64C810.01 64.1709 808.013 60.4364 804.02 60.4364ZM807.07 114.125H799.916C797.919 114.125 796.311 114.865 795.09 116.344C793.907 117.86 793.315 119.856 793.315 122.334C793.315 124.848 794.073 126.752 795.589 128.046C797.142 129.377 799.343 130.043 802.19 130.043C806.59 130.043 809.918 129.211 812.173 127.547C814.466 125.883 815.612 123.535 815.612 120.503C815.612 118.174 815.002 116.528 813.782 115.567C812.598 114.606 810.361 114.125 807.07 114.125ZM405.415 255.259H426.325V268.459H390.329V187.372H405.415V255.259ZM447.501 211.221C453.639 207.339 460.128 205.398 466.968 205.398C473.846 205.398 479.004 207.265 482.443 210.999C485.881 214.734 487.601 220.058 487.601 226.973V268.459H476.785L473.846 260.029H473.513C471.369 263.616 469.131 266.112 466.802 267.517C464.473 268.885 461.515 269.569 457.928 269.569C453.38 269.569 449.793 267.886 447.168 264.522C444.58 261.12 443.286 256.294 443.286 250.046C443.286 243.76 445.042 239.027 448.555 235.847C452.104 232.63 457.466 230.855 464.639 230.522L472.848 230.19V225.753C472.848 219.984 470.352 217.1 465.36 217.1C461.699 217.1 457.447 218.542 452.603 221.426L447.501 211.221ZM458.538 250.378C458.538 255.481 460.35 258.032 463.973 258.032C466.673 258.032 468.817 256.831 470.407 254.427C472.034 251.987 472.848 248.751 472.848 244.721V239.508L468.3 239.729C464.935 239.914 462.457 240.876 460.867 242.613C459.314 244.351 458.538 246.94 458.538 250.378ZM539.725 205.508C550.929 205.508 556.531 213.051 556.531 228.138V268.459H541.667V231.632C541.667 227.084 541.112 223.682 540.003 221.426C538.93 219.171 537.211 218.043 534.845 218.043C531.702 218.043 529.372 219.615 527.856 222.758C526.377 225.901 525.638 231.243 525.638 238.787V268.459H510.884V206.673H522.587L524.362 214.604H525.305C526.636 211.72 528.54 209.483 531.018 207.893C533.532 206.303 536.435 205.508 539.725 205.508ZM623.741 268.459H612.76L610.264 260.417H609.765C606.622 266.518 602.129 269.569 596.287 269.569C590.445 269.569 585.878 266.759 582.588 261.138C579.297 255.518 577.651 247.698 577.651 237.677C577.651 227.657 579.26 219.8 582.477 214.105C585.694 208.374 590.131 205.508 595.788 205.508C598.635 205.508 601.075 206.211 603.109 207.616C605.143 209.021 607.028 211.351 608.766 214.604H609.654C609.21 209.021 608.988 205.083 608.988 202.791V182.158H623.741V268.459ZM608.877 237.788C608.877 230.689 608.23 225.66 606.936 222.702C605.679 219.744 603.59 218.265 600.669 218.265C595.455 218.265 592.848 224.81 592.848 237.899C592.848 244.37 593.477 249.195 594.734 252.375C596.028 255.518 598.043 257.089 600.78 257.089C603.553 257.089 605.568 255.869 606.825 253.429C608.082 250.952 608.766 246.385 608.877 239.729V237.788ZM644.64 253.152C646.748 254.557 649.114 255.721 651.739 256.646C654.402 257.57 656.824 258.032 659.005 258.032C661.224 258.032 662.943 257.478 664.163 256.368C665.383 255.259 665.994 253.762 665.994 251.876C665.994 249.953 665.346 248.289 664.052 246.884C662.758 245.479 660.466 243.778 657.175 241.782C652.738 239.119 649.539 236.291 647.58 233.296C645.62 230.264 644.64 226.695 644.64 222.591C644.64 217.304 646.433 213.144 650.02 210.112C653.644 207.043 658.395 205.508 664.274 205.508C670.153 205.508 675.515 206.95 680.359 209.835L675.533 220.428C671.614 218.284 668.138 217.211 665.106 217.211C663.294 217.211 661.889 217.692 660.891 218.653C659.93 219.615 659.449 220.909 659.449 222.536C659.449 224.126 660.003 225.549 661.113 226.806C662.259 228.027 664.607 229.727 668.157 231.909C671.706 234.054 674.258 235.939 675.811 237.566C679.064 240.968 680.691 245.239 680.691 250.378C680.691 256.479 678.898 261.212 675.311 264.577C671.762 267.905 666.77 269.569 660.336 269.569C653.903 269.569 648.67 268.367 644.64 265.964V253.152ZM721.779 269.569C714.421 269.569 708.819 266.888 704.973 261.527C701.128 256.165 699.205 248.16 699.205 237.511C699.205 226.862 701.035 218.875 704.696 213.551C708.357 208.189 713.977 205.508 721.557 205.508C726.733 205.508 731.392 206.803 735.534 209.391L731.318 220.872C728.286 219.06 725.569 218.154 723.165 218.154C720.059 218.154 717.804 219.763 716.399 222.979C714.994 226.196 714.291 231.096 714.291 237.677C714.291 244.259 714.975 249.103 716.343 252.209C717.748 255.315 719.985 256.868 723.054 256.868C726.752 256.868 730.616 255.573 734.646 252.985V265.964C730.727 268.367 726.438 269.569 721.779 269.569ZM755.878 211.221C762.016 207.339 768.505 205.398 775.345 205.398C782.223 205.398 787.381 207.265 790.82 210.999C794.258 214.734 795.978 220.058 795.978 226.973V268.459H785.162L782.223 260.029H781.89C779.745 263.616 777.508 266.112 775.179 267.517C772.849 268.885 769.891 269.569 766.305 269.569C761.757 269.569 758.17 267.886 755.545 264.522C752.957 261.12 751.662 256.294 751.662 250.046C751.662 243.76 753.419 239.027 756.931 235.847C760.481 232.63 765.843 230.855 773.016 230.522L781.224 230.19V225.753C781.224 219.984 778.729 217.1 773.737 217.1C770.076 217.1 765.824 218.542 760.98 221.426L755.878 211.221ZM766.915 250.378C766.915 255.481 768.727 258.032 772.35 258.032C775.05 258.032 777.194 256.831 778.784 254.427C780.411 251.987 781.224 248.751 781.224 244.721V239.508L776.676 239.729C773.312 239.914 770.834 240.876 769.244 242.613C767.691 244.351 766.915 246.94 766.915 250.378ZM833.904 214.715C836.936 208.577 841.336 205.508 847.104 205.508C852.872 205.508 857.328 208.3 860.471 213.883C863.651 219.467 865.241 227.287 865.241 237.344C865.241 247.402 863.595 255.296 860.304 261.027C857.05 266.722 852.558 269.569 846.827 269.569C844.09 269.569 841.706 268.959 839.672 267.738C837.638 266.481 835.752 264.374 834.015 261.416H833.238C833.83 266.296 834.126 269.328 834.126 270.512V295.748H819.261V206.673H830.687L833.238 214.715H833.904ZM834.015 237.344C834.015 244.185 834.662 249.158 835.956 252.264C837.287 255.333 839.432 256.868 842.39 256.868C847.566 256.868 850.154 250.397 850.154 237.455C850.154 224.514 847.529 218.043 842.279 218.043C839.395 218.043 837.305 219.393 836.011 222.092C834.754 224.754 834.089 229.191 834.015 235.403V237.344ZM886.472 190.589C886.472 188.111 887.174 186.17 888.58 184.765C890.022 183.323 891.981 182.602 894.459 182.602C896.936 182.602 898.896 183.323 900.338 184.765C901.78 186.17 902.501 188.111 902.501 190.589C902.501 193.029 901.761 194.952 900.282 196.357C898.84 197.762 896.899 198.465 894.459 198.465C892.055 198.465 890.114 197.762 888.635 196.357C887.193 194.952 886.472 193.029 886.472 190.589ZM901.835 268.459H887.082V206.673H901.835V268.459ZM954.681 205.508C965.885 205.508 971.486 213.051 971.486 228.138V268.459H956.622V231.632C956.622 227.084 956.068 223.682 954.958 221.426C953.886 219.171 952.167 218.043 949.8 218.043C946.657 218.043 944.328 219.615 942.812 222.758C941.333 225.901 940.593 231.243 940.593 238.787V268.459H925.84V206.673H937.543L939.318 214.604H940.26C941.592 211.72 943.496 209.483 945.973 207.893C948.488 206.303 951.39 205.508 954.681 205.508ZM1013.52 256.202H1022.45C1027.73 256.202 1031.78 257.644 1034.59 260.528C1037.4 263.375 1038.81 267.609 1038.81 273.229C1038.81 280.44 1036.39 285.986 1031.54 289.868C1026.74 293.788 1019.84 295.748 1010.85 295.748C1004.01 295.748 998.745 294.25 995.047 291.255C991.35 288.297 989.501 284.063 989.501 278.554C989.501 275.115 990.555 272.083 992.662 269.458C994.77 266.87 997.691 264.984 1001.43 263.801C999.466 263.024 997.894 261.859 996.711 260.306C995.565 258.753 994.992 256.905 994.992 254.76C994.992 252.578 995.694 250.545 997.099 248.659C997.802 247.735 999.207 246.385 1001.31 244.61C998.8 243.057 996.785 240.691 995.269 237.511C993.79 234.294 993.051 230.707 993.051 226.751C993.051 219.947 994.825 214.715 998.375 211.055C1001.92 207.357 1007.01 205.508 1013.63 205.508C1014.81 205.508 1016.25 205.656 1017.95 205.952C1019.65 206.248 1020.89 206.525 1021.67 206.784H1039.25V215.436L1031.88 217.1C1033.32 219.689 1034.04 222.942 1034.04 226.862C1034.04 233.37 1032.26 238.491 1028.71 242.225C1025.16 245.923 1020.21 247.772 1013.85 247.772C1012.07 247.772 1010.71 247.624 1009.75 247.328C1009.12 247.919 1008.64 248.4 1008.3 248.77C1007.97 249.103 1007.64 249.602 1007.3 250.267C1006.97 250.933 1006.81 251.617 1006.81 252.32C1006.81 254.908 1009.04 256.202 1013.52 256.202ZM1013.63 215.436C1009.52 215.436 1007.47 219.171 1007.47 226.64C1007.47 234.072 1009.52 237.788 1013.63 237.788C1017.62 237.788 1019.62 234.072 1019.62 226.64C1019.62 219.171 1017.62 215.436 1013.63 215.436ZM1016.68 269.125H1009.52C1007.53 269.125 1005.92 269.865 1004.7 271.344C1003.51 272.86 1002.92 274.856 1002.92 277.334C1002.92 279.848 1003.68 281.752 1005.2 283.046C1006.75 284.377 1008.95 285.043 1011.8 285.043C1016.2 285.043 1019.53 284.211 1021.78 282.547C1024.07 280.883 1025.22 278.535 1025.22 275.503C1025.22 273.174 1024.61 271.528 1023.39 270.567C1022.21 269.606 1019.97 269.125 1016.68 269.125Z" fill="#366F5F"/>
</svg>
